<?xml version="1.0" encoding="utf-8"?>
<!-- Generator: Adobe Illustrator 24.2.1, SVG Export Plug-In . SVG Version: 6.00 Build 0)  -->
<svg version="1.1" id="Camada_1" xmlns="http://www.w3.org/2000/svg" xmlns:xlink="http://www.w3.org/1999/xlink" x="0px" y="0px"
	 viewBox="0 0 333 84" style="enable-background:new 0 0 333 84;" xml:space="preserve">
<style type="text/css">
	.st0{fill:#02336A;}
	.st1{fill:#085FBA;}
</style>
<g>
	<g>
		<path class="st0" d="M84.18,53.1v5.13H62.8v-27.6h20.86v5.13H69.15v5.99h12.82v4.97H69.15v6.39H84.18z"/>
		<path class="st0" d="M113.24,46.38c0.89,1.17,1.34,2.61,1.34,4.32c0,2.42-0.94,4.28-2.82,5.58c-1.88,1.3-4.62,1.95-8.22,1.95
			H89.26v-27.6h13.49c3.36,0,5.95,0.64,7.75,1.93c1.8,1.29,2.7,3.04,2.7,5.24c0,1.34-0.32,2.54-0.97,3.59
			c-0.64,1.05-1.54,1.88-2.7,2.48C111.11,44.37,112.35,45.21,113.24,46.38z M95.61,35.43v6.51h6.35c1.58,0,2.77-0.28,3.59-0.83
			c0.81-0.55,1.22-1.37,1.22-2.45c0-1.08-0.41-1.89-1.22-2.43c-0.82-0.54-2.01-0.81-3.59-0.81H95.61z M106.87,52.59
			c0.85-0.55,1.28-1.41,1.28-2.56c0-2.29-1.7-3.43-5.09-3.43h-7.45v6.82h7.45C104.75,53.42,106.02,53.14,106.87,52.59z"/>
		<path class="st0" d="M125.05,56.85c-2.3-1.24-4.1-2.94-5.4-5.11c-1.3-2.17-1.95-4.61-1.95-7.32c0-2.71,0.65-5.15,1.95-7.32
			c1.3-2.17,3.1-3.87,5.4-5.11c2.3-1.24,4.88-1.85,7.75-1.85c2.87,0,5.44,0.62,7.73,1.85c2.29,1.24,4.09,2.94,5.4,5.11
			c1.31,2.17,1.97,4.61,1.97,7.32c0,2.71-0.66,5.15-1.97,7.32c-1.31,2.17-3.12,3.87-5.4,5.11c-2.29,1.24-4.86,1.85-7.73,1.85
			C129.93,58.7,127.35,58.08,125.05,56.85z M137.22,52.13c1.31-0.75,2.35-1.79,3.1-3.14c0.75-1.34,1.12-2.87,1.12-4.57
			c0-1.71-0.37-3.23-1.12-4.57c-0.75-1.34-1.78-2.39-3.1-3.14c-1.31-0.75-2.79-1.12-4.42-1.12c-1.63,0-3.1,0.37-4.42,1.12
			c-1.31,0.75-2.35,1.79-3.1,3.14c-0.75,1.34-1.12,2.87-1.12,4.57c0,1.71,0.37,3.23,1.12,4.57c0.75,1.34,1.78,2.39,3.1,3.14
			c1.31,0.75,2.79,1.12,4.42,1.12C134.43,53.26,135.9,52.88,137.22,52.13z"/>
		<path class="st0" d="M158.29,56.87c-2.27-1.22-4.06-2.92-5.36-5.09c-1.3-2.17-1.95-4.62-1.95-7.35c0-2.73,0.65-5.19,1.95-7.35
			c1.3-2.17,3.09-3.86,5.36-5.09c2.27-1.22,4.83-1.83,7.67-1.83c2.39,0,4.55,0.42,6.49,1.26c1.93,0.84,3.56,2.05,4.87,3.63
			l-4.1,3.79c-1.87-2.16-4.18-3.23-6.94-3.23c-1.71,0-3.23,0.37-4.57,1.12c-1.34,0.75-2.39,1.79-3.14,3.14
			c-0.75,1.34-1.12,2.87-1.12,4.57c0,1.71,0.37,3.23,1.12,4.57c0.75,1.34,1.79,2.39,3.14,3.14c1.34,0.75,2.87,1.12,4.57,1.12
			c2.76,0,5.07-1.09,6.94-3.27l4.1,3.79c-1.31,1.6-2.94,2.83-4.89,3.67c-1.95,0.84-4.11,1.26-6.51,1.26
			C163.11,58.7,160.57,58.09,158.29,56.87z"/>
	</g>
	<g>
		<path class="st1" d="M185.01,30.62h13.6c3.08,0,5.79,0.56,8.14,1.68c2.35,1.12,4.18,2.71,5.48,4.79c1.3,2.08,1.95,4.52,1.95,7.33
			c0,2.81-0.65,5.26-1.95,7.33c-1.3,2.08-3.13,3.67-5.48,4.79c-2.35,1.12-5.07,1.68-8.14,1.68h-13.6V30.62z M198.22,50.97
			c2,0,3.59-0.57,4.79-1.72c1.2-1.14,1.79-2.75,1.79-4.83c0-2.08-0.6-3.69-1.79-4.83c-1.2-1.14-2.79-1.72-4.79-1.72h-3.9v13.09
			H198.22z"/>
		<path class="st1" d="M236,53.42h-10.49l-1.85,4.81h-9.46l12.07-27.6h9.15l12.07,27.6h-9.62L236,53.42z M233.44,46.71l-2.68-6.94
			l-2.68,6.94H233.44z"/>
		<path class="st1" d="M253.59,37.84h-8.08v-7.22h25.47v7.22h-8.08v20.39h-9.31V37.84z"/>
		<path class="st1" d="M290.81,53.42h-10.49l-1.85,4.81h-9.46l12.07-27.6h9.15l12.07,27.6h-9.62L290.81,53.42z M288.25,46.71
			l-2.68-6.94l-2.68,6.94H288.25z"/>
	</g>
	<path class="st0" d="M39.21,30.43v5.21h-6.38v22.4h6.39v-7.69h5.56h0.32l5.32,7.69h6.86l-6.19-8.87c1.81-0.79,3.21-1.93,4.2-3.41
		c0.99-1.48,1.48-3.25,1.48-5.3c0-2.05-0.49-3.83-1.46-5.32c-0.97-1.5-2.36-2.65-4.16-3.47c-1.8-0.81-3.92-1.22-6.37-1.22
		 M48.81,43.99c-1,0.84-2.46,1.26-4.38,1.26h-5.21v-9.62h5.21c1.92,0,3.38,0.41,4.38,1.24c1,0.83,1.5,2.02,1.5,3.57
		C50.3,41.97,49.8,43.15,48.81,43.99z"/>
	<rect x="26.52" y="25.3" class="st1" width="6.39" height="5.21"/>
</g>
</svg>
